<svg xmlns="http://www.w3.org/2000/svg" width="600" height="320" viewBox="0 0 600 320" font-family="system-ui, sans-serif">
  <rect width="600" height="320" fill="#fcfcfb"/>
  <text x="70" y="18" font-size="13" font-weight="600" fill="#0b0b0b">패킷 손실률별 TCP 처리량 (iperf3 10초, 로그 축)</text>
  <g stroke="#e6e5e1" stroke-width="1">
    <line x1="70" x2="560" y1="250" y2="250"/><line x1="70" x2="560" y1="206" y2="206"/>
    <line x1="70" x2="560" y1="162" y2="162"/><line x1="70" x2="560" y1="118" y2="118"/>
    <line x1="70" x2="560" y1="74" y2="74"/><line x1="70" x2="560" y1="30" y2="30"/>
  </g>
  <g font-size="11" fill="#8a8984" text-anchor="end">
    <text x="62" y="254">1 Mbps</text><text x="62" y="210">10 Mbps</text><text x="62" y="166">100 Mbps</text>
    <text x="62" y="122">1 Gbps</text><text x="62" y="78">10 Gbps</text><text x="62" y="34">100 Gbps</text>
  </g>
  <g font-size="11" fill="#52514e" text-anchor="middle">
    <text x="70" y="272">0%</text><text x="119" y="272">1%</text><text x="315" y="272">5%</text><text x="560" y="272">10%</text>
    <text x="315" y="296">패킷 손실률</text>
  </g>
  <polyline points="70,59.6 119,104.1 315,172.0 560,210.6" fill="none" stroke="#2a78d6" stroke-width="2" stroke-linejoin="round"/>
  <g fill="#2a78d6" stroke="#fcfcfb" stroke-width="2">
    <circle cx="70" cy="59.6" r="5"/><circle cx="119" cy="104.1" r="5"/><circle cx="315" cy="172.0" r="5"/><circle cx="560" cy="210.6" r="5"/>
  </g>
  <g font-size="12" fill="#0b0b0b">
    <text x="80" y="54">21.3 Gbps</text>
    <text x="129" y="100">2.07 Gbps (재전송 17,739)</text>
    <text x="325" y="167">59.1 Mbps (재전송 2,815)</text>
    <text x="550" y="200" text-anchor="end">7.86 Mbps (재전송 606)</text>
  </g>
</svg>
